<svg width="50" height="50" viewBox="0 0 50 50" fill="none" xmlns="http://www.w3.org/2000/svg">
<path d="M28.1777 8.9708C28.2308 8.7725 28.3224 8.5866 28.4473 8.42371C28.5722 8.26082 28.728 8.12414 28.9057 8.02148C29.0835 7.91882 29.2797 7.85219 29.4832 7.8254C29.6867 7.7986 29.8935 7.81217 30.0918 7.86533C32.9884 8.62109 35.6312 10.1353 37.748 12.2521C39.8648 14.3689 41.379 17.0117 42.1348 19.9083C42.1879 20.1066 42.2015 20.3134 42.1747 20.5169C42.1479 20.7204 42.0813 20.9166 41.9786 21.0944C41.876 21.2721 41.7393 21.4279 41.5764 21.5528C41.4135 21.6777 41.2276 21.7693 41.0293 21.8224C40.8973 21.8571 40.7615 21.8748 40.625 21.8751C40.2807 21.8751 39.946 21.7613 39.673 21.5515C39.4 21.3417 39.2039 21.0476 39.1152 20.7149C38.4989 18.3503 37.263 16.1929 35.5351 14.465C33.8072 12.7371 31.6498 11.5012 29.2852 10.8849C29.0867 10.832 28.9006 10.7406 28.7375 10.6158C28.5744 10.4909 28.4375 10.3352 28.3346 10.1574C28.2318 9.97965 28.165 9.78334 28.1381 9.57973C28.1111 9.37611 28.1246 9.16919 28.1777 8.9708ZM27.7227 17.1349C30.416 17.8536 32.1465 19.5841 32.8652 22.2774C32.9539 22.6101 33.15 22.9042 33.423 23.114C33.696 23.3238 34.0307 23.4376 34.375 23.4376C34.5115 23.4373 34.6473 23.4196 34.7793 23.3849C34.9776 23.3318 35.1635 23.2402 35.3264 23.1153C35.4893 22.9904 35.626 22.8346 35.7286 22.6569C35.8313 22.4791 35.8979 22.2829 35.9247 22.0794C35.9515 21.8759 35.9379 21.6691 35.8848 21.4708C34.8848 17.7286 32.2715 15.1153 28.5293 14.1153C28.1289 14.0084 27.7024 14.0648 27.3436 14.2723C26.9848 14.4798 26.7232 14.8214 26.6162 15.2218C26.5093 15.6222 26.5657 16.0487 26.7732 16.4075C26.9807 16.7662 27.3223 17.0279 27.7227 17.1349ZM43.7266 35.7579C43.3783 38.4044 42.0786 40.8337 40.0701 42.592C38.0617 44.3503 35.4819 45.3174 32.8125 45.3126C17.3047 45.3126 4.68752 32.6954 4.68752 17.1876C4.68273 14.5182 5.6498 11.9384 7.40809 9.92997C9.16638 7.92152 11.5957 6.62179 14.2422 6.27353C14.9114 6.19181 15.5892 6.32873 16.1742 6.66384C16.7592 6.99895 17.2202 7.51428 17.4883 8.13291L21.6133 17.3419V17.3653C21.8185 17.8389 21.9033 18.3559 21.86 18.8702C21.8167 19.3845 21.6468 19.88 21.3652 20.3126C21.3301 20.3653 21.293 20.4142 21.2539 20.463L17.1875 25.2833C18.6504 28.256 21.7598 31.338 24.7715 32.8048L29.5254 28.7599C29.5721 28.7206 29.621 28.6841 29.6719 28.6505C30.1041 28.3622 30.6014 28.1862 31.1187 28.1385C31.636 28.0908 32.1571 28.1727 32.6348 28.377L32.6602 28.3888L41.8613 32.5118C42.481 32.7789 42.9976 33.2395 43.3339 33.8246C43.6701 34.4097 43.8078 35.088 43.7266 35.7579ZM40.625 35.3673H40.6035L31.4238 31.256L26.668 35.3009C26.622 35.3401 26.5737 35.3766 26.5234 35.4102C26.0738 35.7103 25.5539 35.8885 25.0147 35.9275C24.4756 35.9665 23.9355 35.865 23.4473 35.6329C19.7891 33.8653 16.1426 30.2462 14.3731 26.627C14.1387 26.1424 14.0336 25.6054 14.0678 25.0682C14.102 24.5309 14.2745 24.0117 14.5684 23.5606C14.6014 23.5076 14.6386 23.4573 14.6797 23.4102L18.75 18.5841L14.6485 9.40439C14.6477 9.3966 14.6477 9.38875 14.6485 9.38095C12.7544 9.62802 11.0154 10.5571 9.75707 11.9941C8.49874 13.4311 7.8074 15.2775 7.81252 17.1876C7.81975 23.8158 10.456 30.1704 15.1428 34.8573C19.8297 39.5441 26.1843 42.1804 32.8125 42.1876C34.7214 42.1941 36.5673 41.5052 38.0052 40.2496C39.443 38.994 40.3744 37.2577 40.625 35.3653V35.3673Z" fill="#301236"/>
</svg>
