<svg width="35" height="35" viewBox="0 0 35 35" fill="none" xmlns="http://www.w3.org/2000/svg">
<path d="M34.6472 11.4567C34.6616 11.617 34.669 11.7778 34.6695 11.9387C34.6695 14.9751 32.208 17.4366 29.1715 17.4366C28.5323 17.4372 27.8978 17.3261 27.2968 17.1083C24.5183 17.9352 21.1418 18.4204 17.4998 18.4204C13.8577 18.4204 10.4812 17.9352 7.7027 17.1083C7.10171 17.3261 6.46727 17.4372 5.82802 17.4366C2.79163 17.4366 0.330078 14.9751 0.330078 11.9387C0.330078 11.7762 0.338555 11.6157 0.352363 11.4567C0.337538 11.3316 0.330097 11.2057 0.330078 11.0796C0.330215 7.02535 8.01729 3.73877 17.4998 3.73877C26.9824 3.73877 34.6695 7.02535 34.6695 11.0796C34.6695 11.2061 34.662 11.3319 34.6472 11.4567Z" fill="#132028"/>
<path d="M32.7022 25.9747C31.7131 30.1198 27.2814 31.0405 21.9639 31.0405H13.0358C7.7183 31.0405 3.28656 30.1199 2.29746 25.9747C2.06689 25.0085 2.19472 24.0071 2.63325 23.0911L5.74319 14.3894C6.59242 12.6156 8.533 11.3827 10.7809 11.1286V8.29084C10.7809 7.36676 11.5299 6.61768 12.4541 6.61768C13.3782 6.61768 14.1273 7.36676 14.1273 8.29084V11.0793H20.8725V8.29084C20.8725 7.36676 21.6216 6.61768 22.5457 6.61768C23.4698 6.61768 24.2189 7.36676 24.2189 8.29084V11.1287C26.4667 11.3828 28.4074 12.6156 29.2566 14.3895L32.3666 23.0912C32.805 24.0071 32.9328 25.0085 32.7022 25.9747Z" fill="#5A5D5E"/>
<path d="M14.5534 15.6043C14.5534 16.1414 13.7396 16.5768 12.7359 16.5768C11.7321 16.5768 10.9183 16.1414 10.9183 15.6043C10.9183 15.0672 11.7321 14.6318 12.7359 14.6318C13.7396 14.6318 14.5534 15.0672 14.5534 15.6043ZM17.5003 14.6318C16.4965 14.6318 15.6828 15.0672 15.6828 15.6043C15.6828 16.1414 16.4965 16.5768 17.5003 16.5768C18.5041 16.5768 19.3178 16.1414 19.3178 15.6043C19.3178 15.0672 18.5041 14.6318 17.5003 14.6318ZM22.2647 14.6318C21.261 14.6318 20.4472 15.0672 20.4472 15.6043C20.4472 16.1414 21.261 16.5768 22.2647 16.5768C23.2685 16.5768 24.0823 16.1414 24.0823 15.6043C24.0823 15.0672 23.2685 14.6318 22.2647 14.6318ZM11.7382 17.6C10.5132 17.6 9.5203 18.1313 9.5203 18.7867C9.5203 19.4421 10.5133 19.9734 11.7382 19.9734C12.963 19.9734 13.956 19.4421 13.956 18.7867C13.956 18.1313 12.963 17.6 11.7382 17.6ZM17.5003 17.6C16.2754 17.6 15.2825 18.1313 15.2825 18.7867C15.2825 19.4421 16.2754 19.9734 17.5003 19.9734C18.7252 19.9734 19.7182 19.4421 19.7182 18.7867C19.7182 18.1313 18.7252 17.6 17.5003 17.6ZM23.2625 17.6C22.0375 17.6 21.0446 18.1313 21.0446 18.7867C21.0446 19.4421 22.0376 19.9734 23.2625 19.9734C24.4873 19.9734 25.4803 19.4421 25.4803 18.7867C25.4803 18.1313 24.4874 17.6 23.2625 17.6ZM10.6602 21.0096C9.19642 21.0096 8.00977 21.6446 8.00977 22.4277C8.00977 23.2109 9.19642 23.8459 10.6602 23.8459C12.124 23.8459 13.3106 23.2109 13.3106 22.4277C13.3106 21.6446 12.124 21.0096 10.6602 21.0096ZM17.5003 21.0096C16.0365 21.0096 14.8499 21.6446 14.8499 22.4277C14.8499 23.2109 16.0365 23.8459 17.5003 23.8459C18.9641 23.8459 20.1507 23.2109 20.1507 22.4277C20.1507 21.6446 18.9641 21.0096 17.5003 21.0096ZM24.3404 21.0096C22.8766 21.0096 21.69 21.6446 21.69 22.4277C21.69 23.2109 22.8766 23.8459 24.3404 23.8459C25.8042 23.8459 26.9908 23.2109 26.9908 22.4277C26.9908 21.6446 25.8042 21.0096 24.3404 21.0096Z" fill="#F4F9F9"/>
</svg>
