<svg width="38" height="38" viewBox="0 0 38 38" fill="none" xmlns="http://www.w3.org/2000/svg">
<path d="M8.5498 5.70005C7.79394 5.70005 7.06903 6.00032 6.53455 6.53479C6.00007 7.06927 5.6998 7.79418 5.6998 8.55005V12.35C5.6998 12.602 5.59972 12.8436 5.42156 13.0218C5.2434 13.2 5.00176 13.3 4.7498 13.3C4.49785 13.3 4.25621 13.2 4.07805 13.0218C3.89989 12.8436 3.7998 12.602 3.7998 12.35V8.55005C3.7998 7.29027 4.30025 6.08209 5.19105 5.19129C6.08185 4.30049 7.29003 3.80005 8.5498 3.80005H12.3498C12.6018 3.80005 12.8434 3.90014 13.0216 4.0783C13.1997 4.25646 13.2998 4.49809 13.2998 4.75005C13.2998 5.002 13.1997 5.24364 13.0216 5.4218C12.8434 5.59996 12.6018 5.70005 12.3498 5.70005H8.5498ZM8.5498 32.3001C7.79394 32.3001 7.06903 31.9998 6.53455 31.4653C6.00007 30.9308 5.6998 30.2059 5.6998 29.4501V25.65C5.6998 25.3981 5.59972 25.1565 5.42156 24.9783C5.2434 24.8001 5.00176 24.7001 4.7498 24.7001C4.49785 24.7001 4.25621 24.8001 4.07805 24.9783C3.89989 25.1565 3.7998 25.3981 3.7998 25.65V29.4501C3.7998 30.7098 4.30025 31.918 5.19105 32.8088C6.08185 33.6996 7.29003 34.2001 8.5498 34.2001H12.3498C12.6018 34.2001 12.8434 34.1 13.0216 33.9218C13.1997 33.7436 13.2998 33.502 13.2998 33.25C13.2998 32.9981 13.1997 32.7565 13.0216 32.5783C12.8434 32.4001 12.6018 32.3001 12.3498 32.3001H8.5498ZM32.2998 8.55005C32.2998 7.79418 31.9995 7.06927 31.4651 6.53479C30.9306 6.00032 30.2057 5.70005 29.4498 5.70005H25.6498C25.3979 5.70005 25.1562 5.59996 24.9781 5.4218C24.7999 5.24364 24.6998 5.002 24.6998 4.75005C24.6998 4.49809 24.7999 4.25646 24.9781 4.0783C25.1562 3.90014 25.3979 3.80005 25.6498 3.80005H29.4498C30.7096 3.80005 31.9178 4.30049 32.8086 5.19129C33.6994 6.08209 34.1998 7.29027 34.1998 8.55005V12.35C34.1998 12.602 34.0997 12.8436 33.9216 13.0218C33.7434 13.2 33.5018 13.3 33.2498 13.3C32.9979 13.3 32.7562 13.2 32.5781 13.0218C32.3999 12.8436 32.2998 12.602 32.2998 12.35V8.55005ZM29.4498 32.3001C30.2057 32.3001 30.9306 31.9998 31.4651 31.4653C31.9995 30.9308 32.2998 30.2059 32.2998 29.4501V25.65C32.2998 25.3981 32.3999 25.1565 32.5781 24.9783C32.7562 24.8001 32.9979 24.7001 33.2498 24.7001C33.5018 24.7001 33.7434 24.8001 33.9216 24.9783C34.0997 25.1565 34.1998 25.3981 34.1998 25.65V29.4501C34.1998 30.7098 33.6994 31.918 32.8086 32.8088C31.9178 33.6996 30.7096 34.2001 29.4498 34.2001H25.6498C25.3979 34.2001 25.1562 34.1 24.9781 33.9218C24.7999 33.7436 24.6998 33.502 24.6998 33.25C24.6998 32.9981 24.7999 32.7565 24.9781 32.5783C25.1562 32.4001 25.3979 32.3001 25.6498 32.3001H29.4498ZM21.3748 19.5852C21.3748 20.8772 20.3108 21.9223 18.9998 21.9223C18.6904 21.9248 18.3835 21.8663 18.0967 21.7502C17.8099 21.6341 17.5488 21.4627 17.3283 21.2457C17.1077 21.0286 16.9321 20.7703 16.8114 20.4854C16.6907 20.2005 16.6273 19.8946 16.6248 19.5852C16.6248 18.2932 17.6888 17.2463 18.9998 17.2463C20.3108 17.2463 21.3748 18.2951 21.3748 19.5852ZM9.4998 17.2463V24.2612C9.4998 25.555 10.5638 26.6 11.8748 26.6H26.1248C27.4358 26.6 28.4998 25.5532 28.4998 24.2631V17.2444C28.4998 15.9524 27.4358 14.9074 26.1248 14.9074H23.7498L22.0797 12.4393C21.8608 12.1174 21.566 11.8543 21.2214 11.673C20.8769 11.4918 20.493 11.3981 20.1037 11.4H17.8959C17.1017 11.4 16.3607 11.7914 15.9199 12.4412L14.2498 14.9074H11.8748C10.5638 14.9074 9.4998 15.9562 9.4998 17.2463ZM18.9998 14.9074C21.6218 14.9074 23.7498 16.9993 23.7498 19.5814C23.7498 22.1654 21.6218 24.2592 18.9998 24.2592C16.3778 24.2592 14.2498 22.1654 14.2498 19.5834C14.2498 16.9993 16.3778 14.9055 18.9998 14.9055" fill="#84282A"/>
</svg>
