<svg width="60" height="60" viewBox="0 0 60 60" fill="none" xmlns="http://www.w3.org/2000/svg">
<path d="M51.7677 36.759C51.4797 34.758 49.9347 33.198 47.9457 32.733C40.2147 30.921 38.2767 26.469 37.9497 21.531C36.5787 21.276 34.1397 21 29.9997 21C25.8597 21 23.4207 21.276 22.0497 21.531C21.7227 26.469 19.7847 30.921 12.0537 32.733C10.0647 33.201 8.51972 34.758 8.23172 36.759L6.74072 47.085C6.21572 50.721 8.88572 54 12.5997 54H47.3997C51.1107 54 53.7837 50.721 53.2587 47.085L51.7677 36.759ZM29.9997 46.476C25.8147 46.476 22.4217 43.116 22.4217 38.976C22.4217 34.836 25.8147 31.476 29.9997 31.476C34.1847 31.476 37.5777 34.836 37.5777 38.976C37.5777 43.116 34.1817 46.476 29.9997 46.476ZM59.8497 18C59.7777 13.5 48.3237 6.003 29.9997 6C11.6727 6.003 0.21872 13.5 0.14972 18C0.0807198 22.5 0.21272 28.356 7.75472 27.381C16.5777 26.238 16.0347 23.157 16.0347 18.753C16.0347 15.681 23.2107 14.94 29.9997 14.94C36.7887 14.94 43.9617 15.681 43.9647 18.753C43.9647 23.157 43.4217 26.238 52.2447 27.381C59.7837 28.356 59.9187 22.5 59.8497 18Z" fill="#1A3D98"/>
</svg>
