<svg width="60" height="60" viewBox="0 0 60 60" fill="none" xmlns="http://www.w3.org/2000/svg">
<path d="M45 45C48.1125 46.06 50 47.455 50 48.9825C50 52.3075 41.045 55 30 55C18.955 55 10 52.305 10 48.9825C10 47.455 11.8875 46.06 15 45M37.5 23.75C37.5 25.7391 36.7098 27.6468 35.3033 29.0533C33.8968 30.4598 31.9891 31.25 30 31.25C28.0109 31.25 26.1032 30.4598 24.6967 29.0533C23.2902 27.6468 22.5 25.7391 22.5 23.75C22.5 21.7609 23.2902 19.8532 24.6967 18.4467C26.1032 17.0402 28.0109 16.25 30 16.25C31.9891 16.25 33.8968 17.0402 35.3033 18.4467C36.7098 19.8532 37.5 21.7609 37.5 23.75Z" stroke="#1A3D98" stroke-width="4.5" stroke-linecap="round" stroke-linejoin="round"/>
<path d="M30 5C40.1475 5 48.75 13.57 48.75 23.9675C48.75 34.53 40.0075 41.9425 31.9325 46.9825C31.3446 47.3207 30.6782 47.4988 30 47.4988C29.3218 47.4988 28.6554 47.3207 28.0675 46.9825C20.0075 41.8925 11.25 34.5675 11.25 23.9675C11.25 13.57 19.8525 5 30 5Z" stroke="#1A3D98" stroke-width="4.5" stroke-linecap="round" stroke-linejoin="round"/>
</svg>
