<svg width="60" height="60" viewBox="0 0 60 60" fill="none" xmlns="http://www.w3.org/2000/svg">
<g clip-path="url(#clip0_1045_16)">
<path d="M53.333 10H6.66634C5.78229 10 4.93444 10.3512 4.30932 10.9763C3.6842 11.6014 3.33301 12.4493 3.33301 13.3333V46.6667C3.33301 47.5507 3.6842 48.3986 4.30932 49.0237C4.93444 49.6488 5.78229 50 6.66634 50H53.333C54.2171 50 55.0649 49.6488 55.69 49.0237C56.3152 48.3986 56.6663 47.5507 56.6663 46.6667V13.3333C56.6663 12.4493 56.3152 11.6014 55.69 10.9763C55.0649 10.3512 54.2171 10 53.333 10ZM50.7663 46.6667H9.43301L21.0997 34.6L18.6997 32.2833L6.66634 44.7333V15.8667L27.383 36.4833C28.0076 37.1042 28.8524 37.4526 29.733 37.4526C30.6136 37.4526 31.4585 37.1042 32.083 36.4833L53.333 15.35V44.5167L41.0663 32.25L38.7163 34.6L50.7663 46.6667ZM8.84967 13.3333H50.633L29.733 34.1167L8.84967 13.3333Z" fill="#1A3D98"/>
</g>
<defs>
<clipPath id="clip0_1045_16">
<rect width="60" height="60" fill="white"/>
</clipPath>
</defs>
</svg>
