<svg width="35" height="35" viewBox="0 0 35 35" fill="none" xmlns="http://www.w3.org/2000/svg">
<path d="M31.8332 1.38623H3.16602C2.69463 1.38623 2.24256 1.57349 1.90924 1.9068C1.57593 2.24012 1.38867 2.69219 1.38867 3.16357V31.8335C1.38867 32.3049 1.57593 32.757 1.90924 33.0903C2.24256 33.4236 2.69463 33.6108 3.16602 33.6108H18.5934V21.1339H14.3988V16.2694H18.5934V12.6819C18.5934 8.52022 21.1363 6.25342 24.8496 6.25342C26.1027 6.24895 27.3551 6.31285 28.6012 6.44483V10.7952H26.0336C24.0129 10.7952 23.6219 11.755 23.6219 13.1632V16.2694H28.4371L27.8109 21.1339H23.6219V33.6136H31.825C32.2962 33.6129 32.7478 33.4254 33.081 33.0922C33.4141 32.7591 33.6016 32.3074 33.6023 31.8362V3.16631C33.6031 2.69587 33.4173 2.24434 33.0856 1.91066C32.754 1.57699 32.3036 1.3884 31.8332 1.38623Z" fill="black"/>
</svg>
