<svg width="42" height="42" viewBox="0 0 42 42" fill="none" xmlns="http://www.w3.org/2000/svg">
<path d="M11.8801 3.96749L14.3701 3.21749C15.5035 2.87552 16.7227 2.95773 17.8 3.44877C18.8773 3.93982 19.7391 4.80613 20.2246 5.88598L21.7741 9.33298C22.1916 10.2616 22.3079 11.2976 22.1067 12.2957C21.9054 13.2937 21.3968 14.2037 20.6521 14.898L17.9446 17.4225C17.9122 17.4547 17.8848 17.4916 17.8636 17.532C17.5801 18.111 18.0106 19.6575 19.3591 21.9945C20.8801 24.6285 22.0546 25.6695 22.5991 25.509L26.1526 24.4215C27.1257 24.1243 28.1675 24.1391 29.1319 24.4638C30.0962 24.7884 30.9348 25.4067 31.5301 26.232L33.7321 29.2815C34.4234 30.239 34.7436 31.4149 34.6333 32.5907C34.5229 33.7665 33.9895 34.8623 33.1321 35.6745L31.2376 37.467C30.5788 38.091 29.7788 38.5464 28.9058 38.7943C28.0329 39.0421 27.113 39.0751 26.2246 38.8905C20.9491 37.7925 16.2226 33.5445 12.0046 26.2395C7.78506 18.93 6.46956 12.705 8.16456 7.58548C8.44829 6.72839 8.93416 5.95219 9.58112 5.32246C10.2281 4.69273 11.0156 4.22798 11.8801 3.96749ZM12.5326 6.12148C12.0139 6.27771 11.5404 6.5565 11.1522 6.93428C10.764 7.31207 10.4724 7.77775 10.3021 8.29198C8.84106 12.7035 10.0246 18.3075 13.9546 25.1145C17.8816 31.917 22.1386 35.742 26.6851 36.687C27.2181 36.7976 27.7701 36.7776 28.2938 36.6288C28.8175 36.4799 29.2974 36.2065 29.6926 35.832L31.5856 34.041C32.0474 33.6038 32.3348 33.0138 32.3944 32.3806C32.454 31.7474 32.2817 31.1142 31.9096 30.5985L29.7076 27.5475C29.3871 27.1032 28.9356 26.7703 28.4165 26.5955C27.8973 26.4207 27.3365 26.4126 26.8126 26.5725L23.2501 27.663C21.2791 28.2495 19.4251 26.607 17.4121 23.118C15.7066 20.166 15.1156 18.033 15.8446 16.5435C15.9866 16.2535 16.1756 15.998 16.4116 15.777L19.1191 13.2525C19.5202 12.8787 19.7942 12.3886 19.9027 11.8511C20.0111 11.3136 19.9484 10.7556 19.7236 10.2555L18.1726 6.80998C17.9112 6.22837 17.4471 5.76178 16.8668 5.49734C16.2866 5.2329 15.63 5.1887 15.0196 5.37298L12.5326 6.12148Z" fill="#84282A"/>
</svg>
