<svg width="38" height="38" viewBox="0 0 38 38" fill="none" xmlns="http://www.w3.org/2000/svg">
<path d="M18.9997 32.7798L19.5428 33.8359C19.3748 33.9223 19.1886 33.9673 18.9997 33.9673C18.8108 33.9673 18.6246 33.9223 18.4566 33.8359L18.4518 33.8327L18.4408 33.828L18.4012 33.8074C15.4531 32.2081 12.6768 30.3108 10.1156 28.1454C6.01634 24.6573 1.58301 19.5257 1.58301 13.4805V13.479C1.58301 8.00062 6.06226 3.95837 10.665 3.95837C14.2972 3.95837 17.2279 5.89954 18.9997 8.87462C20.773 5.89954 23.7022 3.95837 27.3343 3.95837C31.9355 3.95837 36.4163 7.99904 36.4163 13.4805C36.4163 19.5257 31.9814 24.6589 27.8838 28.1454C25.3226 30.3108 22.5462 32.2081 19.5982 33.8074L19.5586 33.828L19.5475 33.8327L19.5443 33.8343L18.9997 32.7798ZM10.665 6.33337C7.37326 6.33337 3.95801 9.31004 3.95801 13.4805C3.95801 18.4 7.63767 22.9172 11.6546 26.3372C13.9019 28.2353 16.3223 29.9184 18.8841 31.3643L18.9997 31.4292L19.1153 31.3659C19.5443 31.1236 20.1618 30.7642 20.9044 30.2987C22.3928 29.3677 24.3719 28.0171 26.3448 26.3372C30.3617 22.9172 34.0413 18.4 34.0413 13.4805C34.0413 9.31004 30.6261 6.33337 27.3343 6.33337C23.9998 6.33337 21.3161 8.53262 20.1254 12.1015C20.0455 12.3366 19.8939 12.5407 19.692 12.6853C19.4901 12.8299 19.248 12.9076 18.9997 12.9076C18.7513 12.9076 18.5092 12.8299 18.3073 12.6853C18.1055 12.5407 17.9539 12.3366 17.8739 12.1015C16.6833 8.53262 13.9979 6.33337 10.665 6.33337Z" fill="#84282A"/>
</svg>
