<svg width="38" height="38" viewBox="0 0 38 38" fill="none" xmlns="http://www.w3.org/2000/svg">
<path d="M4.75 17.3961V24.5306C4.75 29.013 4.75 31.255 6.14175 32.6484C7.53192 34.0417 9.77233 34.0417 14.25 34.0417H23.75C28.2277 34.0417 30.4681 34.0417 31.8583 32.6484C33.2484 31.255 33.25 29.013 33.25 24.529V17.3961" stroke="#84282A" stroke-width="1.5" stroke-linecap="round" stroke-linejoin="round"/>
<path d="M23.7503 26.8803C22.6673 27.8414 20.9431 28.4636 19.0003 28.4636C17.0576 28.4636 15.3333 27.8414 14.2503 26.8803M28.1773 3.96313L9.73783 4.00905C6.986 3.86655 6.27983 5.98822 6.27983 7.02688C6.27983 7.95472 6.16108 9.30688 4.47483 11.8481C2.787 14.3894 2.91366 15.1446 3.86525 16.9053C4.65375 18.3651 6.66141 18.9351 7.70958 19.0317C11.0346 19.1077 12.6527 16.2324 12.6527 14.2105C14.3026 19.2882 18.994 19.2882 21.084 18.7071C23.1772 18.126 24.9727 16.044 25.3954 14.2105C25.6424 16.4905 26.3929 17.8189 28.6048 18.7325C30.8991 19.6777 32.8703 18.2321 33.8599 17.3043C34.8495 16.3781 35.4844 14.3197 33.7206 12.0571C32.5046 10.4975 31.9963 9.02822 31.8301 7.50505C31.7351 6.62155 31.6496 5.67313 31.0289 5.06988C30.1232 4.18797 28.8217 3.92197 28.1773 3.96313Z" stroke="#84282A" stroke-width="1.5" stroke-linecap="round" stroke-linejoin="round"/>
</svg>
