<svg width="35" height="35" viewBox="0 0 35 35" fill="none" xmlns="http://www.w3.org/2000/svg">
<g clip-path="url(#clip0_18_743)">
<path d="M17.5 35C17.5 35 5.25 19.0225 5.25 12.25C5.25 10.6413 5.56686 9.04837 6.18248 7.56213C6.7981 6.07589 7.70043 4.72546 8.83794 3.58794C9.97546 2.45042 11.3259 1.5481 12.8121 0.932476C14.2984 0.316856 15.8913 0 17.5 0C19.1087 0 20.7016 0.316856 22.1879 0.932476C23.6741 1.5481 25.0245 2.45042 26.1621 3.58794C27.2996 4.72546 28.2019 6.07589 28.8175 7.56213C29.4332 9.04837 29.75 10.6413 29.75 12.25C29.75 19.0225 17.5 35 17.5 35ZM17.5 15.75C18.4283 15.75 19.3185 15.3813 19.9749 14.7249C20.6313 14.0685 21 13.1783 21 12.25C21 11.3217 20.6313 10.4315 19.9749 9.77513C19.3185 9.11875 18.4283 8.75 17.5 8.75C16.5717 8.75 15.6815 9.11875 15.0251 9.77513C14.3688 10.4315 14 11.3217 14 12.25C14 13.1783 14.3688 14.0685 15.0251 14.7249C15.6815 15.3813 16.5717 15.75 17.5 15.75Z" fill="black"/>
</g>
<defs>
<clipPath id="clip0_18_743">
<rect width="35" height="35" fill="white"/>
</clipPath>
</defs>
</svg>
