<svg width="38" height="38" viewBox="0 0 38 38" fill="none" xmlns="http://www.w3.org/2000/svg">
<g clip-path="url(#clip0_18_609)">
<path fill-rule="evenodd" clip-rule="evenodd" d="M16.6252 3.16663C14.4791 3.16681 12.3642 3.6802 10.4569 4.66397C8.5496 5.64775 6.90522 7.07337 5.66095 8.8219C4.41667 10.5704 3.60859 12.5912 3.30411 14.7155C2.99963 16.8399 3.20759 19.0062 3.91064 21.0339C4.61368 23.0615 5.79143 24.8916 7.34561 26.3715C8.8998 27.8514 10.7854 28.9382 12.845 29.5412C14.9046 30.1441 17.0785 30.2458 19.1854 29.8377C21.2923 29.4297 23.2711 28.5236 24.9566 27.1953L30.739 32.9776C31.0376 33.266 31.4376 33.4256 31.8527 33.422C32.2678 33.4184 32.665 33.2519 32.9585 32.9583C33.2521 32.6648 33.4186 32.2677 33.4222 31.8525C33.4258 31.4374 33.2662 31.0374 32.9778 30.7388L27.1955 24.9565C28.7598 22.9719 29.7338 20.5871 30.0061 18.0749C30.2783 15.5626 29.8377 13.0245 28.7348 10.7509C27.6319 8.47739 25.9112 6.56027 23.7696 5.21899C21.628 3.87771 19.1521 3.16646 16.6252 3.16663ZM6.33349 16.625C6.33349 13.8954 7.41779 11.2777 9.34785 9.34765C11.2779 7.41759 13.8956 6.33329 16.6252 6.33329C19.3547 6.33329 21.9724 7.41759 23.9025 9.34765C25.8325 11.2777 26.9168 13.8954 26.9168 16.625C26.9168 19.3545 25.8325 21.9722 23.9025 23.9023C21.9724 25.8323 19.3547 26.9166 16.6252 26.9166C13.8956 26.9166 11.2779 25.8323 9.34785 23.9023C7.41779 21.9722 6.33349 19.3545 6.33349 16.625Z" fill="#84282A"/>
</g>
<defs>
<clipPath id="clip0_18_609">
<rect width="38" height="38" fill="white"/>
</clipPath>
</defs>
</svg>
