<svg width="112" height="112" viewBox="0 0 112 112" fill="none" xmlns="http://www.w3.org/2000/svg">
<circle cx="56" cy="56" r="55.5" fill="white" fill-opacity="0.4" stroke="white"/>
<path d="M82.6714 56.4999C82.6714 57.3328 82.3405 58.1317 81.7515 58.7206C81.1626 59.3096 80.3637 59.6405 79.5308 59.6405H41.0581L54.5419 73.1216C55.1319 73.7116 55.4633 74.5119 55.4633 75.3463C55.4633 76.1806 55.1319 76.9809 54.5419 77.5709C53.9519 78.1609 53.1517 78.4923 52.3173 78.4923C51.4829 78.4923 50.6827 78.1609 50.0927 77.5709L31.2489 58.7271C30.9561 58.4353 30.7238 58.0886 30.5653 57.7069C30.4068 57.3251 30.3252 56.9159 30.3252 56.5025C30.3252 56.0892 30.4068 55.6799 30.5653 55.2981C30.7238 54.9164 30.9561 54.5697 31.2489 54.2779L50.0927 35.4342C50.3848 35.142 50.7316 34.9103 51.1133 34.7522C51.495 34.5941 51.9041 34.5127 52.3173 34.5127C52.7304 34.5127 53.1395 34.5941 53.5212 34.7522C53.9029 34.9103 54.2497 35.142 54.5419 35.4342C54.834 35.7263 55.0658 36.0731 55.2239 36.4548C55.382 36.8365 55.4633 37.2456 55.4633 37.6588C55.4633 38.0719 55.382 38.481 55.2239 38.8627C55.0658 39.2444 54.834 39.5912 54.5419 39.8834L41.0581 53.3593H79.5308C80.3637 53.3593 81.1626 53.6902 81.7515 54.2791C82.3405 54.8681 82.6714 55.6669 82.6714 56.4999Z" fill="black"/>
</svg>
