<svg width="112" height="112" viewBox="0 0 112 112" fill="none" xmlns="http://www.w3.org/2000/svg">
<circle cx="56" cy="56" r="55.5" fill="white" fill-opacity="0.4" stroke="white"/>
<path d="M75.7334 54.7333C75.5747 54.3241 75.3368 53.9503 75.0334 53.6333L58.3667 36.9666C58.0559 36.6558 57.6869 36.4093 57.2808 36.2411C56.8748 36.0729 56.4395 35.9863 56 35.9863C55.1123 35.9863 54.261 36.339 53.6333 36.9666C53.3225 37.2774 53.076 37.6464 52.9078 38.0525C52.7396 38.4585 52.653 38.8938 52.653 39.3333C52.653 40.221 53.0057 41.0723 53.6333 41.7L64.6334 52.6666H39.3333C38.4493 52.6666 37.6014 53.0178 36.9763 53.6429C36.3512 54.2681 36 55.1159 36 56C36 56.884 36.3512 57.7319 36.9763 58.357C37.6014 58.9821 38.4493 59.3333 39.3333 59.3333H64.6334L53.6333 70.3C53.3209 70.6098 53.0729 70.9785 52.9037 71.3847C52.7345 71.7909 52.6473 72.2266 52.6473 72.6666C52.6473 73.1067 52.7345 73.5424 52.9037 73.9486C53.0729 74.3547 53.3209 74.7234 53.6333 75.0333C53.9432 75.3457 54.3119 75.5937 54.7181 75.7629C55.1243 75.9322 55.56 76.0193 56 76.0193C56.4401 76.0193 56.8757 75.9322 57.2819 75.7629C57.6881 75.5937 58.0568 75.3457 58.3667 75.0333L75.0334 58.3666C75.3368 58.0496 75.5747 57.6758 75.7334 57.2666C76.0668 56.4551 76.0668 55.5448 75.7334 54.7333Z" fill="black"/>
</svg>
