<svg width="34" height="38" viewBox="0 0 34 38" fill="none" xmlns="http://www.w3.org/2000/svg">
<g clip-path="url(#clip0_18_753)">
<path d="M4.75 2.375C2.13008 2.375 0 4.50508 0 7.125V30.875C0 33.4949 2.13008 35.625 4.75 35.625H28.5C31.1199 35.625 33.25 33.4949 33.25 30.875V7.125C33.25 4.50508 31.1199 2.375 28.5 2.375H4.75ZM26.073 14.7918C26.073 21.2266 21.1746 28.641 12.2238 28.641C9.46289 28.641 6.90234 27.8395 4.75 26.459C5.14336 26.5035 5.52188 26.5184 5.92266 26.5184C8.20117 26.5184 10.2941 25.7465 11.9641 24.4402C9.82656 24.3957 8.03047 22.993 7.41445 21.0633C8.16406 21.1746 8.83945 21.1746 9.61133 20.9742C7.38477 20.5215 5.71484 18.5621 5.71484 16.1945V16.1352C6.36055 16.4988 7.11758 16.7215 7.91172 16.7512C7.24375 16.3059 6.69453 15.7047 6.31602 14.9996C5.9375 14.2945 5.73711 13.5004 5.74453 12.6988C5.74453 11.7934 5.98203 10.9621 6.40508 10.2422C8.80234 13.1961 12.402 15.1258 16.4395 15.3336C15.7492 12.0309 18.2207 9.35156 21.1895 9.35156C22.5922 9.35156 23.8539 9.93789 24.7445 10.8879C25.843 10.6801 26.8969 10.2719 27.832 9.71523C27.4684 10.8434 26.7039 11.7934 25.6945 12.3945C26.6742 12.2906 27.6242 12.016 28.5 11.6375C27.8395 12.6098 27.0082 13.4707 26.0582 14.1609C26.073 14.3688 26.073 14.584 26.073 14.7918Z" fill="black"/>
</g>
<defs>
<clipPath id="clip0_18_753">
<rect width="33.25" height="38" fill="white"/>
</clipPath>
</defs>
</svg>
